<svg id="Camada_1" data-name="Camada 1" xmlns="http://www.w3.org/2000/svg" viewBox="0 0 523.38 201.11"><defs><style>.cls-1,.cls-2{fill:#B23033;}.cls-2{fill-rule:evenodd;}</style></defs><title>Logo Rede Lojacorr  CSI Medio Branco Curvas</title><path class="cls-1" d="M78.5,200.9a6.21,6.21,0,0,0-5.1-2.44c-4.26,0-6.52,3.64-6.52,8.06s2.26,8.06,6.55,8.06a6.25,6.25,0,0,0,5.12-2.52l1.59,1.48a8.22,8.22,0,0,1-6.71,3.15c-5.88,0-8.92-4.89-8.92-10.17s3.1-10.14,8.89-10.14a8.27,8.27,0,0,1,6.74,3.14Z" transform="translate(-22.7 -21.27)"/><path class="cls-1" d="M88.8,216.74c-4.68,0-6.89-3.59-6.89-7.52s2.21-7.43,6.89-7.43,6.86,3.56,6.86,7.49S93.4,216.74,88.8,216.74Zm0-13c-3.14,0-4.68,2.52-4.68,5.46s1.54,5.46,4.63,5.46,4.66-2.55,4.66-5.51S91.84,203.79,88.82,203.79Z" transform="translate(-22.7 -21.27)"/><path class="cls-1" d="M106.84,204.34a9.08,9.08,0,0,0-2.73-.45,3.59,3.59,0,0,0-3.66,3.77v8.87H98.26V207a5.35,5.35,0,0,1,5.54-5.22,9.57,9.57,0,0,1,3.64.62Z" transform="translate(-22.7 -21.27)"/><path class="cls-1" d="M118.23,204.34a9.08,9.08,0,0,0-2.73-.45,3.6,3.6,0,0,0-3.67,3.77v8.87h-2.18V207a5.35,5.35,0,0,1,5.54-5.22,9.57,9.57,0,0,1,3.64.62Z" transform="translate(-22.7 -21.27)"/><path class="cls-1" d="M133.08,209.72H122c.18,2.75,1.89,5,4.89,5a7,7,0,0,0,3.74-1.09l1.12,1.61a8.84,8.84,0,0,1-4.92,1.48c-4.7,0-7-3.61-7-7.54s2.21-7.43,6.89-7.43S133.39,205.84,133.08,209.72ZM130.87,208a4.27,4.27,0,0,0-4.32-4.24c-2.68,0-4.16,1.88-4.52,4.24Z" transform="translate(-22.7 -21.27)"/><path class="cls-1" d="M141.92,214.29v1.88a3.72,3.72,0,0,1-1.56.36c-2.58,0-4.79-1.07-4.79-4.55v-13.1l2.19-.19V202h3.9l-.19,1.87h-3.71v7.83c0,2.16.93,2.83,2.65,2.83A5,5,0,0,0,141.92,214.29Z" transform="translate(-22.7 -21.27)"/><path class="cls-1" d="M150.63,216.74c-4.68,0-6.89-3.59-6.89-7.52s2.21-7.43,6.89-7.43,6.86,3.56,6.86,7.49S155.23,216.74,150.63,216.74Zm0-13c-3.14,0-4.68,2.52-4.68,5.46s1.54,5.46,4.63,5.46,4.65-2.55,4.65-5.51S153.67,203.79,150.65,203.79Z" transform="translate(-22.7 -21.27)"/><path class="cls-1" d="M168.67,204.34a9.08,9.08,0,0,0-2.73-.45,3.6,3.6,0,0,0-3.67,3.77v8.87h-2.18V207a5.35,5.35,0,0,1,5.54-5.22,9.57,9.57,0,0,1,3.64.62Z" transform="translate(-22.7 -21.27)"/><path class="cls-1" d="M181.88,207v8.43a11.91,11.91,0,0,1-5.33,1.32c-4.45,0-6.5-1.84-6.5-5,0-3.85,4.11-4.68,6.5-4.68a9.07,9.07,0,0,1,3.22.52v-.21a3.41,3.41,0,0,0-3.56-3.69,10,10,0,0,0-3.64.7l-.75-1.67a10.78,10.78,0,0,1,4.47-.93A5.38,5.38,0,0,1,181.88,207Zm-5.33,7.83a7.83,7.83,0,0,0,3.22-.68v-4.68a8.55,8.55,0,0,0-3.2-.65c-1.56,0-4.44.24-4.44,2.92C172.13,213.93,173.58,214.84,176.55,214.84Z" transform="translate(-22.7 -21.27)"/><path class="cls-1" d="M192.69,204.23a9,9,0,0,0-2.8-.57c-1.75,0-2.89.75-2.89,2.26,0,1,.94,1.69,2.83,2.34,3,1,4.09,2.45,4.09,4.27,0,2.73-2.6,4.1-5,4.1a8.33,8.33,0,0,1-4.08-1l.65-1.76a6.54,6.54,0,0,0,3.43.91c1.56,0,3.1-.78,3.1-2.34,0-1.25-1.36-2-3.64-2.76S185,207.43,185,205.9c0-3.18,2.6-4.11,4.87-4.11a10.1,10.1,0,0,1,3.4.7Z" transform="translate(-22.7 -21.27)"/><path class="cls-1" d="M217.06,215.39a13.69,13.69,0,0,1-5.75,1.37c-4.6,0-6.86-3.56-6.86-7.48s2.26-7.47,6.86-7.47a12.37,12.37,0,0,1,3.56.55v-5.8l2.19-.18Zm-5.7-.65a7.24,7.24,0,0,0,3.51-.89v-9.2a8.35,8.35,0,0,0-3.51-.81c-3.07,0-4.68,2.55-4.68,5.46S208.29,214.74,211.36,214.74Z" transform="translate(-22.7 -21.27)"/><path class="cls-1" d="M232.73,209.72H221.61c.18,2.75,1.89,5,4.88,5a7,7,0,0,0,3.75-1.09l1.12,1.61a8.84,8.84,0,0,1-4.92,1.48c-4.7,0-7-3.61-7-7.54s2.21-7.43,6.89-7.43S233.05,205.84,232.73,209.72ZM230.52,208a4.25,4.25,0,0,0-4.31-4.24c-2.68,0-4.16,1.88-4.53,4.24Z" transform="translate(-22.7 -21.27)"/><path class="cls-1" d="M253.48,199.32a12.11,12.11,0,0,0-4-.86c-2.26,0-4.18,1.35-4.18,3.35,0,1.59,1.14,2.47,4.29,3.64,3.71,1.36,5.43,3.1,5.43,5.57,0,4.11-3.43,5.67-7,5.67a11,11,0,0,1-5.38-1.41l.55-2.08a10.08,10.08,0,0,0,4.83,1.3c3.15,0,4.73-1.45,4.73-3.64,0-1.82-2.23-2.91-5.19-4-3.23-1.14-4.61-2.91-4.61-5.09,0-3.72,3.36-5.41,6.5-5.41a12.83,12.83,0,0,1,4.61,1Z" transform="translate(-22.7 -21.27)"/><path class="cls-1" d="M270.64,209.72H259.51c.19,2.75,1.9,5,4.89,5a7,7,0,0,0,3.75-1.09l1.11,1.61a8.81,8.81,0,0,1-4.91,1.48c-4.71,0-7.05-3.61-7.05-7.54s2.21-7.43,6.89-7.43S271,205.84,270.64,209.72ZM268.43,208a4.26,4.26,0,0,0-4.32-4.24c-2.67,0-4.16,1.88-4.52,4.24Z" transform="translate(-22.7 -21.27)"/><path class="cls-1" d="M285,203.17v14.24c0,3.23-2.81,5-5.64,5a10.13,10.13,0,0,1-5.1-1.35l1.15-1.77a7.62,7.62,0,0,0,4,1c1.46,0,3.46-.72,3.46-3v-1.06a11.65,11.65,0,0,1-3.59.54c-4.6,0-6.86-3.58-6.86-7.51s2.26-7.41,6.86-7.41A14.73,14.73,0,0,1,285,203.17Zm-2.18,10.68v-9.18a8.2,8.2,0,0,0-3.54-.83c-3.07,0-4.68,2.52-4.68,5.46s1.61,5.44,4.68,5.44A7.24,7.24,0,0,0,282.81,213.85Z" transform="translate(-22.7 -21.27)"/><path class="cls-1" d="M299.16,215.33a13.7,13.7,0,0,1-5.72,1.38c-2.57,0-5.85-1.79-5.85-5.25v-9.31l2.19-.18v8.94a3.62,3.62,0,0,0,3.74,3.7,9.9,9.9,0,0,0,3.46-.73V202.15l2.18-.18Z" transform="translate(-22.7 -21.27)"/><path class="cls-1" d="M310.6,204.34a9.08,9.08,0,0,0-2.73-.45,3.6,3.6,0,0,0-3.67,3.77v8.87H302V207a5.36,5.36,0,0,1,5.54-5.22,9.57,9.57,0,0,1,3.64.62Z" transform="translate(-22.7 -21.27)"/><path class="cls-1" d="M319,216.74c-4.68,0-6.89-3.59-6.89-7.52s2.21-7.43,6.89-7.43,6.86,3.56,6.86,7.49S323.6,216.74,319,216.74Zm0-13c-3.15,0-4.68,2.52-4.68,5.46s1.53,5.46,4.62,5.46,4.66-2.55,4.66-5.51S322,203.79,319,203.79Z" transform="translate(-22.7 -21.27)"/><path class="cls-1" d="M335.9,204.23a9,9,0,0,0-2.81-.57c-1.74,0-2.89.75-2.89,2.26,0,1,.94,1.69,2.84,2.34,3,1,4.08,2.45,4.08,4.27,0,2.73-2.6,4.1-5,4.1a8.37,8.37,0,0,1-4.09-1l.66-1.76a6.49,6.49,0,0,0,3.43.91c1.56,0,3.09-.78,3.09-2.34,0-1.25-1.35-2-3.64-2.76s-3.3-2.21-3.3-3.74c0-3.18,2.6-4.11,4.86-4.11a10.11,10.11,0,0,1,3.41.7Z" transform="translate(-22.7 -21.27)"/><path class="cls-1" d="M351,216.53h-2.18V196.69l2.18-.18Z" transform="translate(-22.7 -21.27)"/><path class="cls-1" d="M366.34,207v9.49h-2.18v-8.94a3.62,3.62,0,0,0-3.74-3.7,9.85,9.85,0,0,0-3.46.73v11.91h-2.19V203.17a13.74,13.74,0,0,1,5.72-1.38C363.07,201.79,366.34,203.58,366.34,207Z" transform="translate(-22.7 -21.27)"/><path class="cls-1" d="M381.29,215.39a13.6,13.6,0,0,1-5.74,1.37c-4.6,0-6.87-3.56-6.87-7.48s2.27-7.47,6.87-7.47a12.43,12.43,0,0,1,3.56.55v-5.8l2.18-.18Zm-5.69-.65a7.26,7.26,0,0,0,3.51-.89v-9.2a8.39,8.39,0,0,0-3.51-.81c-3.07,0-4.68,2.55-4.68,5.46S372.53,214.74,375.6,214.74Z" transform="translate(-22.7 -21.27)"/><path class="cls-1" d="M397,209.72H385.84c.19,2.75,1.9,5,4.89,5a7,7,0,0,0,3.75-1.09l1.11,1.61a8.81,8.81,0,0,1-4.91,1.48c-4.71,0-7.05-3.61-7.05-7.54s2.21-7.43,6.89-7.43S397.28,205.84,397,209.72ZM394.76,208a4.25,4.25,0,0,0-4.31-4.24c-2.68,0-4.16,1.88-4.53,4.24Z" transform="translate(-22.7 -21.27)"/><path class="cls-1" d="M412.08,209.28c0,3.87-2.26,7.46-6.87,7.46a12.43,12.43,0,0,1-3.56-.55v6l-2.18.18V203.17a13.6,13.6,0,0,1,5.74-1.38C409.82,201.79,412.08,205.35,412.08,209.28Zm-2.24-.08c0-2.89-1.61-5.39-4.68-5.39a7.41,7.41,0,0,0-3.51.89v9.2a8.39,8.39,0,0,0,3.51.81C408.23,214.71,409.84,212.16,409.84,209.2Z" transform="translate(-22.7 -21.27)"/><path class="cls-1" d="M427.24,209.72H416.11c.18,2.75,1.9,5,4.89,5a7,7,0,0,0,3.74-1.09l1.12,1.61a8.84,8.84,0,0,1-4.92,1.48c-4.7,0-7-3.61-7-7.54s2.21-7.43,6.89-7.43S427.55,205.84,427.24,209.72ZM425,208a4.27,4.27,0,0,0-4.32-4.24c-2.68,0-4.16,1.88-4.52,4.24Z" transform="translate(-22.7 -21.27)"/><path class="cls-1" d="M441.3,207v9.49h-2.18v-8.94a3.62,3.62,0,0,0-3.75-3.7,9.9,9.9,0,0,0-3.46.73v11.91h-2.18V203.17a13.7,13.7,0,0,1,5.72-1.38C438,201.79,441.3,203.58,441.3,207Z" transform="translate(-22.7 -21.27)"/><path class="cls-1" d="M456.25,215.39a13.61,13.61,0,0,1-5.75,1.37c-4.6,0-6.86-3.56-6.86-7.48s2.26-7.47,6.86-7.47a12.44,12.44,0,0,1,3.57.55v-5.8l2.18-.18Zm-5.69-.65a7.29,7.29,0,0,0,3.51-.89v-9.2a8.39,8.39,0,0,0-3.51-.81c-3.07,0-4.68,2.55-4.68,5.46S447.49,214.74,450.56,214.74Z" transform="translate(-22.7 -21.27)"/><path class="cls-1" d="M471.93,209.72H460.8c.18,2.75,1.9,5,4.89,5a7,7,0,0,0,3.74-1.09l1.12,1.61a8.83,8.83,0,0,1-4.91,1.48c-4.71,0-7.05-3.61-7.05-7.54s2.21-7.43,6.89-7.43S472.24,205.84,471.93,209.72ZM469.72,208a4.27,4.27,0,0,0-4.32-4.24c-2.68,0-4.16,1.88-4.52,4.24Z" transform="translate(-22.7 -21.27)"/><path class="cls-1" d="M486,207v9.49h-2.18v-8.94a3.62,3.62,0,0,0-3.74-3.7,9.85,9.85,0,0,0-3.46.73v11.91h-2.19V203.17a13.7,13.7,0,0,1,5.72-1.38C482.72,201.79,486,203.58,486,207Z" transform="translate(-22.7 -21.27)"/><path class="cls-1" d="M495.46,214.29v1.88a3.72,3.72,0,0,1-1.56.36c-2.58,0-4.79-1.07-4.79-4.55v-13.1l2.19-.19V202h3.9l-.19,1.87H491.3v7.83c0,2.16.93,2.83,2.65,2.83A5,5,0,0,0,495.46,214.29Z" transform="translate(-22.7 -21.27)"/><path class="cls-1" d="M510.62,209.72H499.49c.18,2.75,1.9,5,4.89,5a7,7,0,0,0,3.74-1.09l1.12,1.61a8.84,8.84,0,0,1-4.92,1.48c-4.7,0-7-3.61-7-7.54s2.21-7.43,6.89-7.43S510.93,205.84,510.62,209.72ZM508.41,208a4.27,4.27,0,0,0-4.32-4.24c-2.68,0-4.16,1.88-4.52,4.24Z" transform="translate(-22.7 -21.27)"/><path class="cls-1" d="M520.55,204.23a9.13,9.13,0,0,0-2.81-.57c-1.74,0-2.89.75-2.89,2.26,0,1,.94,1.69,2.84,2.34,3,1,4.08,2.45,4.08,4.27,0,2.73-2.6,4.1-5,4.1a8.37,8.37,0,0,1-4.09-1l.65-1.76a6.55,6.55,0,0,0,3.44.91c1.56,0,3.09-.78,3.09-2.34,0-1.25-1.35-2-3.64-2.76s-3.3-2.21-3.3-3.74c0-3.18,2.6-4.11,4.86-4.11a10.11,10.11,0,0,1,3.41.7Z" transform="translate(-22.7 -21.27)"/><path class="cls-2" d="M80.83,131.72v-6c0-1.66,0-3.06,0-4.2s0-2.06,0-2.82,0-1.4,0-2,0-1,.07-1.53a6.8,6.8,0,0,1,.72-3.1,2.92,2.92,0,0,1,2.17-1.34c.48-.08,1-.15,1.55-.19s1,0,1.49,0a3,3,0,0,0,1-.14.56.56,0,0,0,.35-.56.57.57,0,0,0-.41-.56,3.79,3.79,0,0,0-1.22-.14c-.78,0-1.67,0-2.68,0s-2,0-3.07.08l-2.84.08-2,0-2,0-2.71-.08c-1,0-2-.07-3-.08s-2,0-2.92,0a4,4,0,0,0-1.3.14.6.6,0,0,0-.08,1.12,2.85,2.85,0,0,0,1,.14c.51,0,1,0,1.43,0a7.29,7.29,0,0,1,1.14.19,4.79,4.79,0,0,1,2,.8,2.93,2.93,0,0,1,1,1.43,8.11,8.11,0,0,1,.37,2.21c0,.48,0,1,.07,1.53s0,1.2.06,2,0,1.71,0,2.82,0,2.54,0,4.2v19.76c0,2.4,0,4.65,0,6.77s0,4-.11,5.66-.14,3.07-.27,4.17a14.34,14.34,0,0,1-.38,2,4,4,0,0,1-.67,1.5,1.91,1.91,0,0,1-1.21.75c-.35.08-.75.16-1.22.22a14.88,14.88,0,0,1-1.59.09,2.07,2.07,0,0,0-1,.17.51.51,0,0,0-.27.46.63.63,0,0,0,.4.6,3.09,3.09,0,0,0,1.16.18c.79,0,1.66,0,2.59-.08s1.88-.08,2.79-.08,1.82-.06,2.59-.06,1.41,0,1.85,0c1.07,0,2.09,0,3.11,0s2,0,3.09.08l3.31.13,5.8.14c2.13.05,4.6.09,7.38.09a22.83,22.83,0,0,0,2.42-.09,4,4,0,0,0,1.37-.32,1.54,1.54,0,0,0,.73-.64,3.85,3.85,0,0,0,.39-1.05c.13-.47.25-1,.37-1.72s.22-1.4.31-2.17.19-1.49.26-2.21.13-1.31.17-1.83.06-.86.06-1a2.65,2.65,0,0,0-.1-1,.51.51,0,0,0-.52-.32.69.69,0,0,0-.64.33,2.06,2.06,0,0,0-.22.84,7,7,0,0,1-.39,1.65,9.79,9.79,0,0,1-.73,1.69,6,6,0,0,1-.91,1.34,5.67,5.67,0,0,1-2.31,1.51,11.1,11.1,0,0,1-3,.57c-1.13.08-2.39.12-3.77.1-2,0-3.63-.06-4.86-.18a12.43,12.43,0,0,1-2.88-.57,3.84,3.84,0,0,1-2.85-3.72,41.68,41.68,0,0,1-.42-5.53q-.08-3.49-.06-8.47V131.72Zm60,37.43a36.48,36.48,0,0,0,11-1.61,30.84,30.84,0,0,0,9-4.5,29.49,29.49,0,0,0,6.71-6.9,30.93,30.93,0,0,0,4.19-8.78,34.89,34.89,0,0,0,1.46-10.18,32,32,0,0,0-2.2-12.09,25,25,0,0,0-6.27-9.18,27.7,27.7,0,0,0-9.92-5.85,39.91,39.91,0,0,0-13.11-2,38.43,38.43,0,0,0-10.5,1.34,29.77,29.77,0,0,0-8.24,3.62,27.6,27.6,0,0,0-6.13,5.32,29.81,29.81,0,0,0-4.19,6.43,32.5,32.5,0,0,0-3.14,13.85,33.12,33.12,0,0,0,.78,7.06,32.62,32.62,0,0,0,2.39,7,30,30,0,0,0,4.14,6.39,27.32,27.32,0,0,0,6,5.25,29,29,0,0,0,8,3.55,37.4,37.4,0,0,0,10.1,1.31Zm3.27-3.9a23,23,0,0,1-8.24-1.47,21,21,0,0,1-6.65-4.09,24,24,0,0,1-4.92-6.28,31,31,0,0,1-3.07-8,43,43,0,0,1,.08-19.25,22.31,22.31,0,0,1,3-7,16.17,16.17,0,0,1,4.38-4.42,16.65,16.65,0,0,1,5.2-2.32,21.66,21.66,0,0,1,14.39,1.28,21.5,21.5,0,0,1,7.26,5.64,26.84,26.84,0,0,1,4.86,8.92,37.74,37.74,0,0,1,1.76,11.79,44,44,0,0,1-1,9.69,24.92,24.92,0,0,1-2.51,6.85,17.21,17.21,0,0,1-3.52,4.49,15.35,15.35,0,0,1-4,2.63A17.3,17.3,0,0,1,147.3,165a18.38,18.38,0,0,1-3.24.3Zm45.31-11.15q0,5.72-.08,10.15a61.11,61.11,0,0,1-.63,7.88,23.39,23.39,0,0,1-1.72,6.13,17,17,0,0,1-3.42,4.92,23.37,23.37,0,0,1-2.08,1.86,11.67,11.67,0,0,1-1.66,1.11,7.83,7.83,0,0,0-1.36.82.73.73,0,0,0-.36.58.64.64,0,0,0,.2.46.61.61,0,0,0,.42.16,2.64,2.64,0,0,0,.73-.11,4.2,4.2,0,0,0,.83-.35c.82-.39,1.55-.74,2.19-1.08s1.21-.64,1.71-.95a41.16,41.16,0,0,0,6.41-4.81,29.64,29.64,0,0,0,4.35-5,21.3,21.3,0,0,0,2.5-4.91,27.65,27.65,0,0,0,1.18-4.53,43.87,43.87,0,0,0,.55-4.68c.1-1.57.14-3.11.14-4.59,0-1.95-.05-3.86-.12-5.7s-.1-3.62-.12-5.29V125.69c0-1.66,0-3.06,0-4.2s0-2.06,0-2.82,0-1.4,0-2,0-1,.08-1.53a6.67,6.67,0,0,1,.72-3.1,2.92,2.92,0,0,1,2.17-1.34c.45-.08.83-.15,1.15-.19s.69,0,1.11,0a3,3,0,0,0,1-.14.6.6,0,0,0-.07-1.12,3.75,3.75,0,0,0-1.22-.14c-.76,0-1.62,0-2.56,0s-1.85,0-2.79.08l-2.57.08-1.9,0-2,0-2.74-.08c-1,0-2.06-.07-3.15-.08s-2.14,0-3.18,0a3.91,3.91,0,0,0-1.3.14.57.57,0,0,0-.42.56.58.58,0,0,0,.34.56,2.81,2.81,0,0,0,1,.14c.57,0,1.13,0,1.7,0a8.38,8.38,0,0,1,1.34.19,4.74,4.74,0,0,1,2,.8,3,3,0,0,1,1,1.43,8.56,8.56,0,0,1,.36,2.21c0,.48,0,1,.08,1.53s0,1.2.05,2,0,1.69,0,2.82,0,2.54,0,4.2V154.1Zm52.94-6.39H224.92a.64.64,0,0,0-.44.13,1.29,1.29,0,0,0-.26.49L220,159.48a19,19,0,0,0-.87,2.75,9.44,9.44,0,0,0-.3,2,2.21,2.21,0,0,0,.65,1.74,3.63,3.63,0,0,0,2.47.67h1.17a1.86,1.86,0,0,1,.93.15.46.46,0,0,1,.24.48.65.65,0,0,1-.34.62,2.37,2.37,0,0,1-1,.16c-.84,0-1.74,0-2.71-.07l-2.89-.1c-1,0-1.84-.07-2.66-.07l-1.24,0-2.17.08-2.77.08c-1,0-2,0-3,0a2.82,2.82,0,0,1-1.12-.16.62.62,0,0,1-.36-.62.49.49,0,0,1,.23-.48,1.24,1.24,0,0,1,.7-.15c.36,0,.78,0,1.24-.05s.85-.06,1.18-.1a6.09,6.09,0,0,0,3-1.16,8.05,8.05,0,0,0,2-2.42,24.11,24.11,0,0,0,1.62-3.44l19.57-49a14.79,14.79,0,0,1,1.15-2.4c.32-.49.65-.73,1-.72a1.19,1.19,0,0,1,1,.58,10.4,10.4,0,0,1,1,1.92c.25.55.62,1.48,1.17,2.81s1.18,2.92,1.94,4.82,1.59,4,2.52,6.3,1.87,4.69,2.87,7.2l3,7.56c1,2.54,2,5,3,7.36s1.84,4.56,2.67,6.59,1.56,3.78,2.19,5.27a34.29,34.29,0,0,0,2.09,4.21,14.62,14.62,0,0,0,1.83,2.51,6.89,6.89,0,0,0,1.59,1.28,6.11,6.11,0,0,0,1.35.54,15.34,15.34,0,0,0,1.73.25c.56,0,1.08.06,1.54.06a1.7,1.7,0,0,1,.74.11.58.58,0,0,1,0,1,2.83,2.83,0,0,1-1.09.23c-.52,0-1.26.07-2.21.07s-2.18,0-3.68,0l-5.09,0c-1.89,0-3.87-.06-6-.11a14.8,14.8,0,0,1-1.69-.14c-.42-.07-.63-.22-.65-.48a.52.52,0,0,1,.26-.5,2,2,0,0,1,.84-.2,1.14,1.14,0,0,0,.7-.6,1.39,1.39,0,0,0,0-1.2l-6.24-16.53a.84.84,0,0,0-.3-.41.8.8,0,0,0-.48-.13Zm-15.83-3.9h14.35a.45.45,0,0,0,.38-.14.42.42,0,0,0,0-.33l-7-19.26c0-.17-.08-.32-.13-.47s-.14-.22-.26-.23a.35.35,0,0,0-.28.23,1.93,1.93,0,0,0-.19.47l-7.17,19.18a.57.57,0,0,0,0,.39c0,.11.15.16.3.16Zm77.82,25.34c1.26,0,2.55,0,3.86-.1s2.6-.19,3.86-.33,2.43-.34,3.51-.56a17,17,0,0,0,2.8-.8,4.4,4.4,0,0,0,1-.54,1.93,1.93,0,0,0,.6-.67,4.94,4.94,0,0,0,.4-1.06c.16-.54.31-1.2.48-2s.31-1.63.46-2.52.28-1.74.4-2.56.21-1.52.27-2.1.11-1,.11-1.19a1.8,1.8,0,0,0-.15-.81.59.59,0,0,0-.56-.36.68.68,0,0,0-.65.32,3.89,3.89,0,0,0-.36,1.24,10.17,10.17,0,0,1-.53,1.63,14.93,14.93,0,0,1-.91,1.84,12.42,12.42,0,0,1-1.21,1.68,11,11,0,0,1-3.54,2.73,15.23,15.23,0,0,1-4.63,1.3,46,46,0,0,1-6.1.34,20.69,20.69,0,0,1-5.44-.77,25.44,25.44,0,0,1-5.57-2.3,26.07,26.07,0,0,1-5.18-3.85,25.79,25.79,0,0,1-4.33-5.4,27.69,27.69,0,0,1-2.95-6.94,32.34,32.34,0,0,1-1.09-8.5,42.45,42.45,0,0,1,.6-7.44,25.69,25.69,0,0,1,2.18-6.88,20,20,0,0,1,4.39-5.88,16.73,16.73,0,0,1,3.82-2.63,18.62,18.62,0,0,1,4.79-1.64,29.18,29.18,0,0,1,6-.56,33.75,33.75,0,0,1,6.72.65,24.2,24.2,0,0,1,5.46,1.71,11.93,11.93,0,0,1,3.65,2.47,11.2,11.2,0,0,1,3,7.18,3.78,3.78,0,0,0,.16,1.26.62.62,0,0,0,.62.45.7.7,0,0,0,.7-.45,4.24,4.24,0,0,0,.24-1.34c0-.4.06-.94.07-1.61s0-1.42,0-2.22,0-1.62,0-2.41,0-1.53.08-2.18c.05-.9.12-1.64.17-2.19s.12-1,.16-1.32.06-.59.06-.78a.78.78,0,0,0-.26-.61,1.45,1.45,0,0,0-.91-.33,35.78,35.78,0,0,1-3.66-.61c-1.28-.26-2.66-.5-4.14-.71-1.18-.16-2.32-.3-3.44-.42s-2.31-.21-3.57-.27-2.69-.09-4.29-.09a48.45,48.45,0,0,0-10.31,1,31.88,31.88,0,0,0-8,2.83,29.44,29.44,0,0,0-6.3,4.43,27,27,0,0,0-4.59,5.49,28.25,28.25,0,0,0-2.78,5.78,31.41,31.41,0,0,0-1.38,5.48,28.8,28.8,0,0,0-.37,4.62,36.45,36.45,0,0,0,.44,5.83,30.65,30.65,0,0,0,1.53,6,27.37,27.37,0,0,0,3,5.83,28.17,28.17,0,0,0,4.73,5.35,31.75,31.75,0,0,0,7.72,4.94,37.88,37.88,0,0,0,8.93,2.73,57.13,57.13,0,0,0,10.1.83Zm57.39,0a36.41,36.41,0,0,0,11-1.61,30.89,30.89,0,0,0,9-4.5,29.45,29.45,0,0,0,6.7-6.9,30.68,30.68,0,0,0,4.2-8.78A35.23,35.23,0,0,0,394,137.18a32.15,32.15,0,0,0-2.2-12.09,25,25,0,0,0-6.28-9.18,27.57,27.57,0,0,0-9.91-5.85,39.91,39.91,0,0,0-13.11-2,38.43,38.43,0,0,0-10.5,1.34,29.64,29.64,0,0,0-8.24,3.62,27.88,27.88,0,0,0-6.14,5.32,30.14,30.14,0,0,0-4.18,6.43,32.72,32.72,0,0,0-3.15,13.85,33.12,33.12,0,0,0,.78,7.06,32.65,32.65,0,0,0,2.4,7,29.22,29.22,0,0,0,4.14,6.39,27.32,27.32,0,0,0,6,5.25,28.82,28.82,0,0,0,8,3.55,37.4,37.4,0,0,0,10.1,1.31Zm3.27-3.9a23,23,0,0,1-8.24-1.47,20.85,20.85,0,0,1-6.65-4.09,24.27,24.27,0,0,1-4.93-6.28,31.33,31.33,0,0,1-3.06-8,38.9,38.9,0,0,1-1.06-9.25,40.28,40.28,0,0,1,1.13-10,22.55,22.55,0,0,1,3.05-7,16.17,16.17,0,0,1,4.38-4.42,16.6,16.6,0,0,1,5.19-2.32,21.12,21.12,0,0,1,5.44-.68,20.86,20.86,0,0,1,9,2,21.47,21.47,0,0,1,7.25,5.64,26.84,26.84,0,0,1,4.86,8.92,37.44,37.44,0,0,1,1.77,11.79,44.63,44.63,0,0,1-1,9.69,25.25,25.25,0,0,1-2.51,6.85,17.21,17.21,0,0,1-3.52,4.49,15.4,15.4,0,0,1-4,2.63A17.07,17.07,0,0,1,368.2,165a18.54,18.54,0,0,1-3.24.3Zm45.3-19.8c0,2.4,0,4.65,0,6.77s-.05,4-.1,5.66-.15,3.07-.28,4.17a17,17,0,0,1-.37,2.06,4.14,4.14,0,0,1-.68,1.48,1.91,1.91,0,0,1-1.21.75c-.35.08-.75.16-1.22.22a14.83,14.83,0,0,1-1.58.09,2.12,2.12,0,0,0-1,.17.51.51,0,0,0-.27.46.63.63,0,0,0,.4.6,3.09,3.09,0,0,0,1.16.18c.79,0,1.66,0,2.6,0l2.76-.08,2.47-.08,1.68,0,1.65,0,2.82.08,3.46.08c1.21,0,2.39,0,3.53,0a3.09,3.09,0,0,0,1.16-.18.63.63,0,0,0,.4-.6.54.54,0,0,0-.23-.46,1.24,1.24,0,0,0-.71-.17c-.32,0-.7,0-1.14,0l-1.38-.11-1.3-.16a3.17,3.17,0,0,1-1.78-.75,3.29,3.29,0,0,1-.88-1.48,10.81,10.81,0,0,1-.38-2.06q-.19-1.65-.27-4.17c-.05-1.67-.09-3.57-.1-5.69s0-4.39,0-6.82v-1.09a.66.66,0,0,1,.17-.5.7.7,0,0,1,.46-.13l6.78.16a2.15,2.15,0,0,1,.77.09,1.48,1.48,0,0,1,.64.45c.26.3.66.84,1.19,1.58s1.16,1.62,1.87,2.63l2.28,3.23c.79,1.13,1.6,2.23,2.37,3.32,1.45,2,2.77,3.75,4,5.24a36.2,36.2,0,0,0,3.43,3.8,16,16,0,0,0,3.29,2.43,11,11,0,0,0,2.09.87,13.38,13.38,0,0,0,2.6.46c1,.1,2.21.15,3.65.15h7.41a2.88,2.88,0,0,0,1.09-.16.63.63,0,0,0,.39-.62.54.54,0,0,0-.23-.46,1.24,1.24,0,0,0-.71-.17,8.8,8.8,0,0,1-1-.05c-.36,0-.75-.1-1.18-.18a12.44,12.44,0,0,1-1.25-.29,13.21,13.21,0,0,1-1.92-.75,16.93,16.93,0,0,1-2.52-1.56,23.93,23.93,0,0,1-3-2.7q-3.44-3.65-7.58-8.8t-9.34-11.71a38.73,38.73,0,0,0,6.17-6.08,19.72,19.72,0,0,0,3.2-5.72,17.31,17.31,0,0,0,.92-5.67,13,13,0,0,0-.52-3.66,14.57,14.57,0,0,0-1.31-3.08,13.76,13.76,0,0,0-1.72-2.38,10.4,10.4,0,0,0-1.75-1.56,17.42,17.42,0,0,0-4.5-2.16,25.67,25.67,0,0,0-4.89-1,48.54,48.54,0,0,0-5-.22c-.62,0-1.4,0-2.37,0s-2,0-3,.08l-3.09.08-2.49,0-1.78,0c-.77,0-1.64-.06-2.63-.08s-2-.07-3.09-.08-2.15,0-3.19,0a4,4,0,0,0-1.3.14.57.57,0,0,0-.41.56.56.56,0,0,0,.34.56,2.75,2.75,0,0,0,1,.14c.58,0,1.13,0,1.71,0a8.23,8.23,0,0,1,1.33.19,4.79,4.79,0,0,1,2,.8,2.87,2.87,0,0,1,1,1.43,8.11,8.11,0,0,1,.37,2.21c0,.48.05,1,.08,1.53s0,1.2.05,2,0,1.71,0,2.82,0,2.54,0,4.2v19.76Zm9.2-31.27a1.39,1.39,0,0,1,.15-.73.84.84,0,0,1,.56-.36,7.68,7.68,0,0,1,1.62-.25c.7,0,1.53-.07,2.51-.07a11,11,0,0,1,3,.42,11.91,11.91,0,0,1,3.18,1.42,11.22,11.22,0,0,1,2.88,2.62,13.37,13.37,0,0,1,2.08,4.08,19,19,0,0,1,.79,5.73,20.61,20.61,0,0,1-.68,5.5,13,13,0,0,1-1.69,3.82,9.36,9.36,0,0,1-2.23,2.38,6.43,6.43,0,0,1-1.37.79,5.91,5.91,0,0,1-1.66.42,21.21,21.21,0,0,1-2.51.12c-.65,0-1.34,0-2-.08s-1.39-.15-2.05-.26a13.66,13.66,0,0,1-1.83-.44,1,1,0,0,1-.56-.47,2.11,2.11,0,0,1-.15-.94Z" transform="translate(-22.7 -21.27)"/><path class="cls-2" d="M469.13,145.45c0,2.4,0,4.65,0,6.77s-.05,4-.1,5.66-.15,3.07-.28,4.17a17,17,0,0,1-.37,2.06,4.14,4.14,0,0,1-.68,1.48,1.91,1.91,0,0,1-1.21.75c-.35.08-.75.16-1.22.22a14.83,14.83,0,0,1-1.58.09,2.12,2.12,0,0,0-1,.17.51.51,0,0,0-.27.46.63.63,0,0,0,.4.6,3.09,3.09,0,0,0,1.16.18c.79,0,1.66,0,2.6,0l2.76-.08,2.47-.08,1.68,0,1.65,0,2.82.08,3.46.08c1.21,0,2.39,0,3.53,0a3.09,3.09,0,0,0,1.16-.18.63.63,0,0,0,.4-.6.54.54,0,0,0-.23-.46,1.22,1.22,0,0,0-.7-.17c-.33,0-.71,0-1.15,0l-1.38-.11-1.3-.16a3.17,3.17,0,0,1-1.78-.75,3.29,3.29,0,0,1-.88-1.48,10.81,10.81,0,0,1-.38-2.06q-.2-1.65-.27-4.17c-.05-1.67-.09-3.57-.1-5.69s0-4.39,0-6.82v-1.09a.66.66,0,0,1,.17-.5.7.7,0,0,1,.46-.13l6.78.16a2.17,2.17,0,0,1,.77.09,1.4,1.4,0,0,1,.63.45c.26.3.67.84,1.2,1.58s1.16,1.62,1.87,2.63l2.28,3.23c.79,1.13,1.59,2.23,2.37,3.32,1.45,2,2.77,3.75,4,5.24a36.2,36.2,0,0,0,3.43,3.8,16,16,0,0,0,3.29,2.43,11,11,0,0,0,2.09.87,13.38,13.38,0,0,0,2.6.46c1,.1,2.21.15,3.65.15h7.41a2.88,2.88,0,0,0,1.09-.16.63.63,0,0,0,.39-.62.52.52,0,0,0-.24-.46,1.18,1.18,0,0,0-.7-.17,8.8,8.8,0,0,1-1-.05c-.36,0-.75-.1-1.18-.18a11.84,11.84,0,0,1-1.25-.29,13.21,13.21,0,0,1-1.92-.75,16.93,16.93,0,0,1-2.52-1.56,23.93,23.93,0,0,1-3-2.7q-3.44-3.65-7.58-8.8T494,140.61a38.73,38.73,0,0,0,6.17-6.08,19.72,19.72,0,0,0,3.2-5.72,17.31,17.31,0,0,0,.92-5.67,13,13,0,0,0-.52-3.66,14.57,14.57,0,0,0-1.31-3.08,13.76,13.76,0,0,0-1.72-2.38,10.4,10.4,0,0,0-1.75-1.56,17.42,17.42,0,0,0-4.5-2.16,25.82,25.82,0,0,0-4.89-1,48.54,48.54,0,0,0-5-.22c-.62,0-1.4,0-2.37,0s-2,0-3,.08l-3.09.08-2.5,0-1.77,0c-.77,0-1.64-.06-2.63-.08s-2-.07-3.09-.08-2.15,0-3.19,0a4,4,0,0,0-1.3.14.57.57,0,0,0-.41.56.56.56,0,0,0,.34.56,2.75,2.75,0,0,0,1,.14c.58,0,1.13,0,1.71,0a8.23,8.23,0,0,1,1.33.19,4.79,4.79,0,0,1,2,.8,2.87,2.87,0,0,1,1,1.43,8.11,8.11,0,0,1,.37,2.21c0,.48,0,1,.08,1.53s0,1.2.05,2,0,1.71,0,2.82,0,2.54,0,4.2v19.76Zm9.2-31.27a1.39,1.39,0,0,1,.15-.73.84.84,0,0,1,.56-.36,7.68,7.68,0,0,1,1.62-.25c.7,0,1.53-.07,2.51-.07a11,11,0,0,1,3,.42,11.91,11.91,0,0,1,3.18,1.42,11.22,11.22,0,0,1,2.88,2.62,13.14,13.14,0,0,1,2.07,4.08,19.32,19.32,0,0,1,.8,5.73,21,21,0,0,1-.68,5.5,13,13,0,0,1-1.69,3.82,9.36,9.36,0,0,1-2.23,2.38,6.43,6.43,0,0,1-1.37.79,5.91,5.91,0,0,1-1.66.42,21.21,21.21,0,0,1-2.51.12c-.65,0-1.34,0-2-.08s-1.39-.15-2.05-.26a13.3,13.3,0,0,1-1.83-.44,1,1,0,0,1-.56-.47,2.11,2.11,0,0,1-.15-.94Z" transform="translate(-22.7 -21.27)"/><path class="cls-2" d="M22.7,63.62c161-22.92,294.86-31.51,385.53-22.34s128,35,117.9,73.21C610.86,18.78,422.6-11.89,22.7,63.62Z" transform="translate(-22.7 -21.27)"/><path class="cls-2" d="M69.35,86.56c0,1,0,1.83,0,2.67s0,1.58,0,2.24a16.14,16.14,0,0,1-.11,1.65,5.66,5.66,0,0,1-.14.81,1.7,1.7,0,0,1-.27.59.76.76,0,0,1-.48.3l-.48.08a4.09,4.09,0,0,1-.63,0,.71.71,0,0,0-.38.07.18.18,0,0,0-.11.18.23.23,0,0,0,.16.23,1,1,0,0,0,.45.08l1,0,1.1,0,1,0,.66,0,.66,0,1.11,0,1.37,0,1.4,0a1,1,0,0,0,.45-.08.23.23,0,0,0,.16-.23.2.2,0,0,0-.09-.18.43.43,0,0,0-.28-.07H75.4l-.54-.05-.52-.06a1.26,1.26,0,0,1-.7-.3,1.21,1.21,0,0,1-.35-.59,4.5,4.5,0,0,1-.15-.81c0-.43-.09-1-.11-1.65s0-1.41,0-2.25V86.09a.25.25,0,0,1,.06-.19.26.26,0,0,1,.18-.05l2.69.06a1,1,0,0,1,.3,0,.59.59,0,0,1,.25.18c.1.12.26.33.47.63l.74,1,.9,1.27.94,1.32c.57.79,1.1,1.48,1.57,2.07A13.82,13.82,0,0,0,82.45,94a6.48,6.48,0,0,0,1.3,1,4.18,4.18,0,0,0,.82.34,5.58,5.58,0,0,0,1,.19c.4,0,.87.06,1.44.06H90a1,1,0,0,0,.43-.07.23.23,0,0,0,.16-.24.2.2,0,0,0-.09-.18.47.47,0,0,0-.28-.07,2.82,2.82,0,0,1-.4,0l-.46-.07-.5-.11a6.88,6.88,0,0,1-.76-.3,7.63,7.63,0,0,1-1-.62,9.89,9.89,0,0,1-1.21-1.07c-.9-1-1.9-2.11-3-3.48s-2.33-2.9-3.7-4.63a14.28,14.28,0,0,0,2.44-2.4A7.74,7.74,0,0,0,82.89,80a6.69,6.69,0,0,0,.36-2.24,5.18,5.18,0,0,0-.2-1.45,6.14,6.14,0,0,0-.52-1.22,5.42,5.42,0,0,0-.68-.94,3.68,3.68,0,0,0-.69-.61,6.8,6.8,0,0,0-1.78-.86,9.7,9.7,0,0,0-1.93-.38,16.24,16.24,0,0,0-2-.09h-.93l-1.2,0-1.23,0H70.43l-1,0-1.22,0H66.91a1.18,1.18,0,0,0-.51.06.22.22,0,0,0-.17.22.23.23,0,0,0,.14.22,1.27,1.27,0,0,0,.39,0l.67,0a4,4,0,0,1,.53.08,1.77,1.77,0,0,1,.78.31,1.12,1.12,0,0,1,.4.57,3.25,3.25,0,0,1,.15.87c0,.19,0,.4,0,.61s0,.47,0,.77v1.12c0,.44,0,1,0,1.66v7.81ZM73,74.19a.56.56,0,0,1,.05-.28.36.36,0,0,1,.22-.15,3,3,0,0,1,.65-.1c.27,0,.6,0,1,0a4.23,4.23,0,0,1,1.18.16,5,5,0,0,1,1.26.56,4.62,4.62,0,0,1,1.14,1A5.08,5.08,0,0,1,79.3,77a7.62,7.62,0,0,1,.32,2.27,8.51,8.51,0,0,1-.27,2.17A5.16,5.16,0,0,1,78.68,83a3.65,3.65,0,0,1-.88.94,2.55,2.55,0,0,1-.54.32,2.66,2.66,0,0,1-.66.16,8.76,8.76,0,0,1-1,.05l-.81,0a6.88,6.88,0,0,1-.81-.11,4.62,4.62,0,0,1-.73-.17.38.38,0,0,1-.22-.19.88.88,0,0,1-.05-.37V74.19ZM92.62,86.56V77.09c0-.45,0-.82,0-1.12s0-.55,0-.77,0-.42,0-.61a3,3,0,0,0-.14-.87,1.23,1.23,0,0,0-.4-.57,2,2,0,0,0-.78-.31,4,4,0,0,0-.53-.08l-.67,0a1.4,1.4,0,0,1-.4,0,.24.24,0,0,1-.13-.22.22.22,0,0,1,.17-.22,1.36,1.36,0,0,1,.51-.06h1.27l1.23,0,1.11,0c.33,0,.61,0,.83,0h7.71l.79-.09.53-.09.25-.08a1.23,1.23,0,0,1,.25,0,.14.14,0,0,1,.14.08.42.42,0,0,1,0,.2,2.8,2.8,0,0,1,0,.3c0,.13-.06.33-.1.6s-.08.64-.11,1.1c0,.09,0,.22,0,.4s0,.38,0,.6,0,.42,0,.61,0,.33,0,.43a.58.58,0,0,1-.08.22.27.27,0,0,1-.23.12.22.22,0,0,1-.22-.12.66.66,0,0,1-.06-.31c0-.08,0-.18,0-.31s0-.26,0-.4a2.34,2.34,0,0,0-.12-.4,1.4,1.4,0,0,0-.29-.5,1.64,1.64,0,0,0-.61-.37A5.35,5.35,0,0,0,101.1,74a5.18,5.18,0,0,0-.59,0l-1,0-1.13,0-1,0h-.65a.18.18,0,0,0-.16.07.41.41,0,0,0,0,.24v7.8a.59.59,0,0,0,0,.25.19.19,0,0,0,.18.09h1.83l1.26,0h1.13l.72,0a4.73,4.73,0,0,0,.91-.14,1.22,1.22,0,0,0,.57-.32,2.9,2.9,0,0,1,.27-.3.32.32,0,0,1,.22-.1.2.2,0,0,1,.15.05.22.22,0,0,1,.07.19,1.78,1.78,0,0,1,0,.32q0,.23-.09.69c0,.31-.08.72-.12,1.24,0,.16,0,.35,0,.55s0,.42,0,.63,0,.4,0,.56,0,.27,0,.33a2.35,2.35,0,0,1,0,.26.45.45,0,0,1-.08.23.21.21,0,0,1-.19.09.27.27,0,0,1-.22-.08.31.31,0,0,1-.06-.19c0-.16,0-.33,0-.52s0-.39-.09-.59a1.52,1.52,0,0,0-.26-.56,1.31,1.31,0,0,0-.55-.41,2.67,2.67,0,0,0-.92-.24l-.6,0-1,0h-2.8a.16.16,0,0,0-.15.08.75.75,0,0,0,0,.23v2.44c0,.21,0,.48,0,.81v1.06c0,.39,0,.76,0,1.14s0,.72,0,1,0,.56,0,.74a5.05,5.05,0,0,0,.16,1.3,1.45,1.45,0,0,0,.53.79,2.61,2.61,0,0,0,1.11.4,12.54,12.54,0,0,0,1.9.1h.93a9.32,9.32,0,0,0,1-.09,3.62,3.62,0,0,0,.93-.27,2,2,0,0,0,.91-.8,4.29,4.29,0,0,0,.47-1.48.93.93,0,0,1,.12-.36.24.24,0,0,1,.22-.1.21.21,0,0,1,.22.16,2.13,2.13,0,0,1,0,.39c0,.19,0,.44,0,.75s-.06.65-.1,1-.09.68-.13,1-.09.54-.13.7a1.27,1.27,0,0,1-.27.56.85.85,0,0,1-.49.21c-.22,0-.52,0-.91,0-1.15,0-2.16,0-3,0l-2.3,0-1.75-.08-1.46,0h-.73l-1,0-1.1,0-1,0a1.12,1.12,0,0,1-.46-.08.23.23,0,0,1-.16-.23.2.2,0,0,1,.11-.18.77.77,0,0,1,.39-.07,3.87,3.87,0,0,0,.62,0,4.56,4.56,0,0,0,.49-.08.76.76,0,0,0,.47-.3,1.54,1.54,0,0,0,.27-.59,7.38,7.38,0,0,0,.15-.81c0-.43.09-1,.11-1.65s0-1.41,0-2.24V86.56Zm19.49,0c0,1,0,1.83,0,2.67s0,1.58,0,2.24a16.14,16.14,0,0,1-.11,1.65,5.66,5.66,0,0,1-.14.81,1.7,1.7,0,0,1-.27.59.76.76,0,0,1-.48.3l-.48.08a4.09,4.09,0,0,1-.63,0,.71.71,0,0,0-.38.07.18.18,0,0,0-.11.18.23.23,0,0,0,.16.23,1,1,0,0,0,.45.08l1,0,1.1,0,1,0H114c.39,0,.84,0,1.36.06l1.66.13,1.8.13c.6,0,1.19,0,1.75,0a19.92,19.92,0,0,0,3.82-.36,15.58,15.58,0,0,0,3-.91,13.52,13.52,0,0,0,2.14-1.18,9.69,9.69,0,0,0,1.41-1.18,11.16,11.16,0,0,0,1.26-1.55,11,11,0,0,0,1.07-2,11.85,11.85,0,0,0,.75-2.36,12.53,12.53,0,0,0,.28-2.74,12.39,12.39,0,0,0-.43-3.3,10.82,10.82,0,0,0-1.1-2.6,9.86,9.86,0,0,0-1.46-1.93A9.33,9.33,0,0,0,129,74a11.73,11.73,0,0,0-2.49-1,16.93,16.93,0,0,0-2.62-.54c-.88-.1-1.75-.17-2.6-.2s-1.67,0-2.45,0l-1.84,0-1.66.05-1.25,0-1.17,0-1.58-.05-1.69,0a1.18,1.18,0,0,0-.51.06.21.21,0,0,0-.16.22.22.22,0,0,0,.13.22,1.27,1.27,0,0,0,.39,0l.67,0a4,4,0,0,1,.53.08,1.77,1.77,0,0,1,.78.31,1.12,1.12,0,0,1,.4.57,3.25,3.25,0,0,1,.15.87c0,.19,0,.4,0,.61s0,.47,0,.77v1.12c0,.44,0,1,0,1.66v7.81ZM116,80.64V78.79c0-.61,0-1.2,0-1.76s0-1,0-1.5,0-.79,0-1.06a.7.7,0,0,1,.09-.39.55.55,0,0,1,.28-.23,1.31,1.31,0,0,1,.33-.08l.54-.07.6,0h.54a15.52,15.52,0,0,1,2,.1,13.69,13.69,0,0,1,2.24.42,11.17,11.17,0,0,1,2.31.93,10.35,10.35,0,0,1,2.22,1.63,7.39,7.39,0,0,1,1,1.19,9.05,9.05,0,0,1,1,1.67,10.43,10.43,0,0,1,.7,2.17,12.32,12.32,0,0,1,.28,2.68,17.22,17.22,0,0,1-.23,3,9.49,9.49,0,0,1-.81,2.61,6.24,6.24,0,0,1-1.55,2,7.91,7.91,0,0,1-2,1.29,9,9,0,0,1-2.3.71,15.41,15.41,0,0,1-2.83.22,9.07,9.07,0,0,1-2-.19,4.49,4.49,0,0,1-1.31-.46,1.88,1.88,0,0,1-.69-.58,1.7,1.7,0,0,1-.19-.58c0-.28-.08-.57-.1-.89s0-.6,0-.87,0-.59,0-1.15,0-1.28,0-2.14,0-1.84,0-2.94V80.64Zm24.7,5.92c0,1,0,1.83,0,2.67s0,1.58,0,2.24-.06,1.22-.11,1.65a4.5,4.5,0,0,1-.15.81,1.7,1.7,0,0,1-.26.59.81.81,0,0,1-.48.3l-.48.08a4.09,4.09,0,0,1-.63,0,.77.77,0,0,0-.39.07.19.19,0,0,0-.1.18.24.24,0,0,0,.15.23,1.12,1.12,0,0,0,.46.08l1,0,1.1,0,1,0h.73l1.45,0,1.75.08,2.3,0c.87,0,1.89,0,3,0q.57,0,.9,0a.83.83,0,0,0,.49-.21,1.17,1.17,0,0,0,.27-.56c0-.16.08-.4.13-.7s.09-.63.13-1,.07-.69.1-1,0-.56,0-.75a1.17,1.17,0,0,0,0-.39.2.2,0,0,0-.22-.16.25.25,0,0,0-.22.1.8.8,0,0,0-.11.36,4.5,4.5,0,0,1-.48,1.48,2,2,0,0,1-.91.8,3.5,3.5,0,0,1-.93.27,9.32,9.32,0,0,1-1,.09h-.93a12.54,12.54,0,0,1-1.9-.1,2.61,2.61,0,0,1-1.11-.4,1.45,1.45,0,0,1-.53-.79,5.05,5.05,0,0,1-.16-1.3c0-.18,0-.43,0-.74V88.43c0-.38,0-.73,0-1.06V84.12a.53.53,0,0,1,0-.23.14.14,0,0,1,.15-.08h2.79l1,0,.6,0a2.61,2.61,0,0,1,.92.24,1.31,1.31,0,0,1,.55.41,1.37,1.37,0,0,1,.26.56,4.22,4.22,0,0,1,.09.59c0,.19,0,.36,0,.52a.31.31,0,0,0,.06.19.27.27,0,0,0,.22.08.24.24,0,0,0,.2-.09.56.56,0,0,0,.07-.23,2.35,2.35,0,0,0,0-.26c0-.06,0-.17,0-.33s0-.35,0-.56,0-.42,0-.63,0-.39,0-.55c0-.52.08-.93.12-1.24l.09-.69a1.78,1.78,0,0,0,0-.32.25.25,0,0,0-.06-.19.22.22,0,0,0-.16-.05.32.32,0,0,0-.22.1l-.27.3a1.17,1.17,0,0,1-.57.32,4.73,4.73,0,0,1-.91.14l-.72,0h-1.13l-1.26,0h-1.82c-.1,0-.15,0-.18-.09a.57.57,0,0,1,0-.25v-7.8a.51.51,0,0,1,.05-.24.18.18,0,0,1,.17-.07h.64l1,0,1.14,0,1,0a5,5,0,0,1,.59,0,5.6,5.6,0,0,1,1.18.24,1.67,1.67,0,0,1,.6.37,1.4,1.4,0,0,1,.29.5,2.34,2.34,0,0,1,.12.4c0,.14,0,.28.05.4s0,.23,0,.31a.81.81,0,0,0,.06.31.22.22,0,0,0,.22.12.27.27,0,0,0,.23-.12.58.58,0,0,0,.08-.22c0-.1,0-.24.05-.43s0-.39,0-.61,0-.42,0-.6,0-.31,0-.4c0-.46.06-.83.1-1.1s.07-.47.1-.6a1.45,1.45,0,0,0,0-.3.6.6,0,0,0,0-.2.16.16,0,0,0-.15-.08,1.23,1.23,0,0,0-.25,0l-.25.08-.53.09-.79.09h-7.71c-.22,0-.5,0-.83,0l-1.11,0-1.22,0h-1.28a1.36,1.36,0,0,0-.51.06.22.22,0,0,0-.17.22.23.23,0,0,0,.14.22,1.27,1.27,0,0,0,.39,0l.67,0a4,4,0,0,1,.53.08,2,2,0,0,1,.78.31,1.17,1.17,0,0,1,.4.57,3,3,0,0,1,.14.87c0,.19,0,.4,0,.61s0,.47,0,.77v1.12c0,.44,0,1,0,1.66v7.81Z" transform="translate(-22.7 -21.27)"/></svg>